<svg xmlns="http://www.w3.org/2000/svg" viewBox="0 0 512 512">
  <defs>
    <linearGradient id="bg" x1="0" y1="0" x2="1" y2="1">
      <stop offset="0%" stop-color="#0e1b20"/>
      <stop offset="100%" stop-color="#0a1317"/>
    </linearGradient>
  </defs>
  <rect width="512" height="512" rx="88" fill="url(#bg)"/>

  <!-- Amber base geometry -->
  <g fill="none" stroke="#f6b25f" stroke-width="46" stroke-linecap="round" stroke-linejoin="round">
    <path d="M96 196h120"/>
    <path d="M96 196v154"/>
    <path d="M96 350h132"/>
    <path d="M224 196h125"/>
    <path d="M349 196h66"/>
    <path d="M415 196v154"/>
    <path d="M290 350h125"/>
    <path d="M288 350a94 94 0 1 1 0 -188"/>
    <circle cx="278" cy="268" r="20" fill="#f6b25f" stroke="none"/>
    <circle cx="396" cy="350" r="20" fill="#f6b25f" stroke="none"/>
  </g>

  <!-- Dark stroke overlay to mimic the monoline mark -->
  <g fill="none" stroke="#071116" stroke-width="28" stroke-linecap="round" stroke-linejoin="round">
    <path d="M112 212h104"/>
    <path d="M112 212v138"/>
    <path d="M216 212h133"/>
    <path d="M349 212h50"/>
    <path d="M399 212v138"/>
    <path d="M292 350h107"/>
    <circle cx="396" cy="350" r="28"/>
  </g>
</svg>
